<?xml version="1.0" encoding="UTF-8"?>
<svg width="512px" height="512px" viewBox="0 0 512 512" version="1.1" xmlns="http://www.w3.org/2000/svg" xmlns:xlink="http://www.w3.org/1999/xlink">
    <!-- Generator: Sketch 56.3 (81716) - https://sketch.com -->
    <title>drag-drop</title>
    <desc>Created with Sketch.</desc>
    <g id="Page-1" stroke="none" stroke-width="1" fill="none" fill-rule="evenodd">
        <g id="drag-drop" fill="#666666" fill-rule="nonzero">
            <g transform="translate(256.000000, 256.000000) rotate(180.000000) translate(-256.000000, -256.000000) " id="Shape">
                <path d="M354,60 C354,26.914062 327.085938,0 294,0 L60,0 C26.914062,0 0,26.914062 0,60 L0,294 C0,327.085938 26.914062,354 60,354 L156,354 L156,394 L196,394 L196,354 L294,354 C327.085938,354 354,327.085938 354,294 L354,198 L393,198 L393,158 L354,158 L354,60 Z M314,294 C314,305.027344 305.027344,314 294,314 L60,314 C48.972656,314 40,305.027344 40,294 L40,60 C40,48.972656 48.972656,40 60,40 L294,40 C305.027344,40 314,48.972656 314,60 L314,294 Z M472,432 L512,432 L512,472 C512,494.089844 494.089844,512 472,512 L433,512 L433,472 L472,472 L472,432 Z M273,472 L313,472 L313,512 L273,512 L273,472 Z M353,472 L393,472 L393,512 L353,512 L353,472 Z M512,198 L512,238 L472,238 L472,198 L433,198 L433,158 L472,158 C494.089844,158 512,175.910156 512,198 Z M472,276 L512,276 L512,316 L472,316 L472,276 Z M472,354 L512,354 L512,394 L472,394 L472,354 Z M196,472 L235,472 L235,512 L196,512 C173.910156,512 156,494.089844 156,472 L156,432 L196,432 L196,472 Z M233,154 L273,154 L273,274 L153,274 L153,234 L204.714844,234 L133.355469,162.640625 L161.640625,134.359375 L233,205.714844 L233,154 Z"></path>
            </g>
        </g>
    </g>
</svg>