<?xml version="1.0" encoding="UTF-8"?>
<svg width="612px" height="434px" viewBox="0 0 612 434" version="1.1" xmlns="http://www.w3.org/2000/svg" xmlns:xlink="http://www.w3.org/1999/xlink">
    <!-- Generator: Sketch 56.3 (81716) - https://sketch.com -->
    <title>up-and-down-straight-arrows</title>
    <desc>Created with Sketch.</desc>
    <g id="Page-1" stroke="none" stroke-width="1" fill="none" fill-rule="evenodd">
        <g id="up-and-down-straight-arrows" fill="#FFFFFF" fill-rule="nonzero">
            <path d="M132.644,0.859 L115.703,17.8 L115.703,17.8 L0,133.503 L16.941,150.444 L120.662,46.723 L120.662,433.021 L144.624,433.021 L144.624,46.724 L248.345,150.445 L265.287,133.504 L149.585,17.801 L132.644,0.859 Z M129.732,37.654 L132.644,34.742 L135.555,37.654 L129.732,37.654 Z M595.143,283.809 L492.008,387.35 L492.008,1.71 L468.178,1.71 L468.178,387.35 L365.043,283.809 L348.198,300.725 L480.098,433.141 L612,300.713 L595.143,283.809 Z M480.099,399.307 L477.211,396.407 L482.986,396.407 L480.099,399.307 Z" id="Shape"></path>
        </g>
    </g>
</svg>