<?xml version="1.0" encoding="UTF-8"?>
<svg width="23px" height="32px" viewBox="0 0 23 32" version="1.1" xmlns="http://www.w3.org/2000/svg" xmlns:xlink="http://www.w3.org/1999/xlink">
    <!-- Generator: Sketch 56.3 (81716) - https://sketch.com -->
    <title>up-arrow</title>
    <desc>Created with Sketch.</desc>
    <g id="Page-1" stroke="none" stroke-width="1" fill="none" fill-rule="evenodd">
        <g id="up-arrow" transform="translate(0.000000, -1.000000)" fill="#FFFFFF" fill-rule="nonzero">
            <path d="M22.477,11.274 C22.921,11.718 22.921,12.417 22.477,12.861 C22.048,13.29 21.334,13.29 20.906,12.861 L12.859,4.814 L12.859,31.369 C12.859,31.988 12.367,32.48 11.748,32.48 C11.129,32.48 10.621,31.988 10.621,31.369 L10.621,4.813 L2.59,12.86 C2.146,13.289 1.431,13.289 1.003,12.86 C0.559,12.416 0.559,11.717 1.003,11.273 L10.955,1.321 C11.384,0.892 12.098,0.892 12.526,1.321 L22.477,11.274 Z" id="Path"></path>
        </g>
    </g>
</svg>