<?xml version="1.0" encoding="utf-8"?>
<!-- Generator: Adobe Illustrator 22.0.1, SVG Export Plug-In . SVG Version: 6.00 Build 0)  -->
<svg version="1.1" id="Ebene_1" xmlns="http://www.w3.org/2000/svg" xmlns:xlink="http://www.w3.org/1999/xlink" x="0px" y="0px"
	 viewBox="0 0 416.1 70.2" style="enable-background:new 0 0 416.1 70.2;" xml:space="preserve">
<g>
	<polygon fill="#FFD500" points="273,70.3 236.8,70.3 236.8,37.3 255,42.6 273,34.5 	"/>
	<polygon fill="#FFD500" points="218.6,70.3 182.2,70.3 164,70.3 164,30.1 177.8,20.1 218.6,32 	"/>
	<polygon fill="#C1CC00" points="164,30.1 164,70.3 146.5,70.3 146.5,23.8 159.4,33.5 	"/>
	<polygon fill="#70022B" points="236.8,37.3 236.8,70.3 218.6,70.3 218.6,32 	"/>
	<polygon fill="#5A7826" points="382.4,70.3 374,70.3 374,33.4 382.4,38.5 	"/>
	<polygon fill="#5A7826" points="372.6,70.3 346,70.3 346,31.3 364.2,27.4 372.6,32.5 	"/>
	<polygon fill="#C1CC00" points="382.4,70.3 382.4,38.5 416.6,59.8 416.6,70.3 	"/>
	<polygon fill="#CA0538" points="146.5,70.3 145.8,70.3 145.1,70.3 145.1,22.7 146.5,23.8 	"/>
	<polygon fill="#FFD500" points="374,70.3 372.6,70.3 372.6,32.5 374,33.4 	"/>
	<polygon fill="#FFFFFF" points="35.2,70.3 33.7,70.3 33.7,16.6 35.2,16.6 	"/>
	<g>
		<g>
			<path fill="#5A7826" d="M0.2,70.3V49.7c0.6-0.8,9.6-9.8,18.2-18.1v38.7H0.2z"/>
			<path fill="#B0D8F4" d="M73,16v54.3H35.2V16.8C35.2,16.7,59.2,16.2,73,16"/>
			<path fill="#B0D8F4" d="M33.7,70.3H18.4V31.6c7.9-7.7,15.3-15,15.3-15V70.3z"/>
		</g>
		<g>
			<path fill="#C1CC00" d="M145.1,70.3h-35.7V4.5c3.7-2.2,6.2-4.2,6.2-4.2l29.5,22.4V70.3z"/>
		</g>
		<path fill="#CA0538" d="M90.7,70.3H73V16c5.1-0.1,8.6-0.1,8.6,0c-0.1,0,9.1,17.1,9.1,16.9V70.3"/>
		<path fill="#EF7D00" d="M109.4,4.5v65.7H90.7V33c1.8-5.1,7.7-23.6,7.9-23.6C102.4,8.3,106.3,6.4,109.4,4.5"/>
	</g>
	<polygon fill="#CA0538" points="346,70.3 328.5,70.3 328.5,35.1 346,31.3 	"/>
	<polygon fill="#CA0538" points="327.1,70.3 273,70.3 273,34.5 293.7,42.7 327.1,35.4 	"/>
	<polygon fill="#70022B" points="328.5,70.3 327.8,70.3 327.1,70.3 327.1,35.4 328.5,35.1 	"/>
</g>
</svg>
