<svg xmlns="http://www.w3.org/2000/svg" viewBox="0 0 100 77.99976"><defs><style>.cls-1{fill:#fff;}.cls-2{fill:#50742f;}.cls-3{fill:#a9cde9;}.cls-4{fill:#b31939;}.cls-5{fill:#de7000;}.cls-6{fill:#a9bf00;}.cls-7{fill:#f4d100;}.cls-8{fill:#6f273f;}.cls-9{fill:#758592;}</style></defs><title>SUED-Pointer_RGB_S</title><g id="Ebene_2" data-name="Ebene 2"><g id="Südtirol"><g id="Pointer"><polygon id="Pointer-2" data-name="Pointer" class="cls-1" points="100 0 100 68.18 50 78 0 68.18 0 0 100 0"/><g id="Panorama"><polygon class="cls-2" points="1.704 64.097 1.704 66.486 10.362 68.187 10.362 59.815 1.704 64.097"/><polygon class="cls-3" points="14.06 57.985 10.362 59.815 10.362 68.187 21.412 70.356 21.412 57.985 14.06 57.985"/><polygon class="cls-4" points="26.601 61.214 24.127 57.985 21.412 57.985 21.412 70.356 26.601 71.376 26.601 61.214"/><polygon class="cls-5" points="31.369 72.312 31.369 52.021 28.75 53.413 26.601 61.214 26.601 71.375 31.369 72.312"/><polygon class="cls-6" points="40.872 56.609 40.872 74.178 31.369 72.312 31.369 52.021 33.404 50.938 40.872 56.609"/><polygon class="cls-4" points="40.872 56.609 40.872 74.178 41.654 74.332 41.654 57.202 40.872 56.609"/><polygon class="cls-6" points="46.306 59.306 45.347 60.005 41.654 57.202 41.654 74.332 46.306 75.246 46.306 59.306"/><polygon class="cls-7" points="61.242 73.763 61.242 61.368 50.374 56.335 46.305 59.306 46.305 75.246 50 75.971 61.242 73.763"/><polygon class="cls-8" points="66.012 72.826 66.012 61.693 63.657 62.486 61.242 61.368 61.242 73.763 66.012 72.826"/><polygon class="cls-7" points="76.178 70.83 76.178 58.27 66.012 61.693 66.012 72.826 76.178 70.83"/><polygon class="cls-4" points="84.009 69.292 84.009 59.405 78.544 57.474 76.178 58.27 76.178 70.83 84.009 69.292"/><polygon class="cls-2" points="84.009 59.401 84.009 69.292 98.296 66.486 98.296 64.407 84.009 59.401"/></g><g id="Südtirol_S"><path class="cls-9" d="M10.99982,38.62922a7.35879,7.35879,0,0,1-4.53167-1.37184A5.82045,5.82045,0,0,1,7.82448,34.409a6.35921,6.35921,0,0,0,3.88021,1.58474c.13229,0,.267-.00585.40307-.01791.04548-1.14343-.67351-1.93855-1.50653-2.85943a7.77021,7.77021,0,0,1-2.48288-5.03189,6.49239,6.49239,0,0,1,.84887-1.7384,7.448,7.448,0,0,1,3.19429-.58635,8.58672,8.58672,0,0,1,3.53983.60013A7.89216,7.89216,0,0,1,14.6685,28.995a5.41721,5.41721,0,0,0-2.91386-.83578q-.19017,0-.38585.01482c-.00448,1.24264.86231,2.158,1.78008,3.12676,1.05971,1.119,2.26067,2.38745,2.36436,4.31153a7.71509,7.71509,0,0,1-.8778,2.15559A7.51232,7.51232,0,0,1,10.99982,38.62922Z"/><path class="cls-9" d="M20.34218,38.57375c-1.94751,0-2.99861-2.18281-2.99861-4.23643,0-1.8417.84887-3.68957.84887-5.47493a3.95612,3.95612,0,0,0-.37793-1.992A10.51688,10.51688,0,0,1,21.22205,26.19a6.39509,6.39509,0,0,1,.41031,2.5063c0,1.67142-.79306,3.501-.79306,5.0605,0,1.16513.33176,1.86069.88746,1.86069A6.542,6.542,0,0,0,24.4563,34.768c.02412-.05374-.03066-.53571-.03066-1.14963,0-1.29453.26562-2.73662.26562-3.9181a7.69744,7.69744,0,0,0-.60944-3.13365,10.84919,10.84919,0,0,1,3.38963-.61323,7.03329,7.03329,0,0,1,.63217,3.29006c0,1.35442-.23737,2.68014-.23737,4.16271,0,1.53065.13987,3.53466.79961,4.47448a9.94659,9.94659,0,0,1-2.90766.61012c-.20774,0-.46474-.02446-.49058-.02721a8.71036,8.71036,0,0,1-.49816-1.70153C24.06178,37.19055,22.071,38.57375,20.34218,38.57375Zm-2.06637-13.8031a10.64775,10.64775,0,0,1-1.84588-3.75825l.00138.00035a7.49807,7.49807,0,0,1,2.29994-1.00907A10.2263,10.2263,0,0,1,20.34218,23.794,3.90972,3.90972,0,0,1,18.27581,24.77065Zm3.25733-1.27227a21.55944,21.55944,0,0,1-.52882-4.305,5.63387,5.63387,0,0,1,2.516-.3483,13.30042,13.30042,0,0,1,.34348,4.40248A4.13269,4.13269,0,0,1,21.53314,23.49838Z"/><path class="cls-9" d="M34.20208,38.54619a22.07111,22.07111,0,0,1-2.59277-.11024,8.61975,8.61975,0,0,1-.61805-3.63078c0-1.73516.21842-3.52376.21842-5.16867a6.81981,6.81981,0,0,0-.64079-3.28972,19.30258,19.30258,0,0,1,3.32934-.61288,6.46032,6.46032,0,0,1,.43924,1.22128,7.927,7.927,0,0,1,3.30109-1.22335,5.54652,5.54652,0,0,1,4.64467,5.702C42.28323,34.872,40.16037,38.54619,34.20208,38.54619Zm2.61965-10.132a5.60028,5.60028,0,0,0-2.24034.53847c-.01516.14331.02377.5302.02377,1.65261,0,1.07675-.1819,2.5688-.1819,3.4947a5.47487,5.47487,0,0,0,.26079,1.9072,2.23855,2.23855,0,0,0,.52951.05684c1.77078,0,3.55775-1.26917,3.55775-4.10482,0-1.94682-.63218-3.10541-1.9327-3.54259Z"/><path class="cls-9" d="M48.03491,38.65678a5.312,5.312,0,0,1-1.97128-.35519,8.21712,8.21712,0,0,1-.85542-4.04729c0-1.19355.27733-2.67258.27733-3.78822v-.05684l-1.66191.21634a3.51577,3.51577,0,0,1,.0534-2.36436L45.416,27.9987a3.937,3.937,0,0,0-.26665-1.64434,11.38023,11.38023,0,0,1,3.19188-.59462,6.84914,6.84914,0,0,1,.28628,1.66914l.00483.05444,3.1178-.56328a5.50541,5.50541,0,0,1,.02791,2.75229l-3.10782.38481c-.10038,1.371-.298,2.4899-.298,3.47851a6.17076,6.17076,0,0,0,.3359,2.31476,1.00429,1.00429,0,0,0,.40548.05788,8.771,8.771,0,0,0,2.724-.70866,4.95431,4.95431,0,0,1,.33693,1.52,5.61873,5.61873,0,0,1-.0596.97875A9.89932,9.89932,0,0,1,48.03491,38.65678Z"/><path class="cls-9" d="M55.00858,38.71224a2.92291,2.92291,0,0,1-.43477-.02721,7.32922,7.32922,0,0,1-.41582-2.58072c0-1.93162.26941-3.0383.26941-5.21035a13.08829,13.08829,0,0,0-.30834-2.81637,14.98579,14.98579,0,0,1,3.349-.62218,11.29853,11.29853,0,0,1,.38551,2.88182c0,1.47568-.30041,3.62756-.30041,5.35574a10.31475,10.31475,0,0,0,.3321,2.5814A10.33774,10.33774,0,0,1,55.00858,38.71224Zm.08337-13.246a15.98259,15.98259,0,0,1-.89124-3.85368,6.18933,6.18933,0,0,1,3.073-.63665,17.0068,17.0068,0,0,1,.5333,3.90191,5.48577,5.48577,0,0,1-2.682.58842Z"/><path class="cls-9" d="M70.91037,38.76358c-2.86769-.65836-5.22965-3.78616-6.0072-4.81555a.15806.15806,0,0,0-.04892-.00448c-.12127,0-.42995.03376-.79685.03962a5.62257,5.62257,0,0,0-.10163,1.12861,10.85718,10.85718,0,0,0,.54088,3.11815,10.89977,10.89977,0,0,1-2.70164.37138,4.37058,4.37058,0,0,1-.54812-.02721,8.97236,8.97236,0,0,1-.53778-3.103c0-2.17393.33177-3.42791.33177-6.00066a5.8113,5.8113,0,0,0-.58636-2.87458,16.12266,16.12266,0,0,1,3.14881-.689,13.43389,13.43389,0,0,1,.40825,1.35289,7.83519,7.83519,0,0,1,4.30912-1.119,8.39609,8.39609,0,0,1,1.20922.06063,5.0231,5.0231,0,0,1,1.67225,3.51812c0,1.11415-.503,2.6293-2.899,3.52054l-.06512.02412.04376.05409A12.41249,12.41249,0,0,0,72.47651,36.208,5.809,5.809,0,0,1,70.91037,38.76358ZM65.1519,28.98434a6.04967,6.04967,0,0,0-.87333.35622c-.01512.08743-.11052,2.527-.11334,2.5976.59577-.04868,3.58048-.33194,3.58048-2.21864a1.5681,1.5681,0,0,0-.38516-1.08451A6.84717,6.84717,0,0,0,65.1519,28.98434Z"/><path class="cls-9" d="M78.08885,38.57961a11.17413,11.17413,0,0,1-2.25792-.22014,7.98281,7.98281,0,0,1-2.47633-5.81325c0-2.97449,1.73943-6.44817,6.64214-6.44817a10.33574,10.33574,0,0,1,2.31165.27526,10.28277,10.28277,0,0,1,2.28444,6.06232C84.59283,36.168,82.03968,38.57961,78.08885,38.57961Zm.99528-9.96768c-1.43247,0-2.35782,1.21853-2.35782,3.10471a7.40528,7.40528,0,0,0,1.37494,4.30774,3.00486,3.00486,0,0,0,.679.06891c1.49964,0,2.4684-1.21853,2.4684-3.10472a7.03578,7.03578,0,0,0-1.43109-4.28087A2.80909,2.80909,0,0,0,79.08413,28.61193Z"/><path class="cls-9" d="M90.09184,38.5362a6.78456,6.78456,0,0,1-2.41226-.43718c-.91088-1.28605-1.04972-3.57359-1.04972-4.82141,0-1.70755.35967-3.01115.35967-4.39662a10.08607,10.08607,0,0,0-.26527-2.321,10.04582,10.04582,0,0,1,3.20187-.58739,6.37241,6.37241,0,0,1,.4265,2.65961c0,1.45471-.36656,3.60921-.36656,4.56268a6.36086,6.36086,0,0,0,.36415,2.48081,1.75467,1.75467,0,0,0,.73725.113,9.26069,9.26069,0,0,0,2.47667-.44511,5.58253,5.58253,0,0,1,.34933,1.83279,5.32329,5.32329,0,0,1-.05477.7059A13.26384,13.26384,0,0,1,90.09184,38.5362Z"/></g></g></g></g></svg>